<?xml version="1.0" encoding="UTF-8"?>
<svg width="463px" height="463px" viewBox="0 0 463 463" version="1.1" xmlns="http://www.w3.org/2000/svg" xmlns:xlink="http://www.w3.org/1999/xlink">
    <!-- Generator: Sketch 58 (84663) - https://sketch.com -->
    <title>barbell</title>
    <desc>Created with Sketch.</desc>
    <g id="barbell" stroke="none" stroke-width="1" fill="none" fill-rule="evenodd">
        <g transform="translate(0.000000, 152.000000)" fill="#000000" fill-rule="nonzero" id="Shape">
            <path d="M447.5,56 L431,56 L431,31.5 C431,22.953 424.047,16 415.5,16 L399.5,16 C399.331,16 399.167,16.02 399,16.025 L399,15.5 C399,6.953 392.047,0 383.5,0 L367.5,0 C358.953,0 352,6.953 352,15.5 L352,72 L111,72 L111,15.5 C111,6.953 104.047,0 95.5,0 L79.5,0 C70.953,0 64,6.953 64,15.5 L64,16.025 C63.833,16.02 63.669,16 63.5,16 L47.5,16 C38.953,16 32,22.953 32,31.5 L32,56 L15.5,56 C6.953,56 0,62.953 0,71.5 L0,87.5 C0,96.047 6.953,103 15.5,103 L32,103 L32,127.5 C32,136.047 38.953,143 47.5,143 L63.5,143 C63.669,143 63.833,142.98 64,142.975 L64,143.5 C64,152.047 70.953,159 79.5,159 L95.5,159 C104.047,159 111,152.047 111,143.5 L111,87 L352,87 L352,143.5 C352,152.047 358.953,159 367.5,159 L383.5,159 C392.047,159 399,152.047 399,143.5 L399,142.975 C399.167,142.98 399.331,143 399.5,143 L415.5,143 C424.047,143 431,136.047 431,127.5 L431,103 L447.5,103 C456.047,103 463,96.047 463,87.5 L463,71.5 C463,62.953 456.047,56 447.5,56 Z M15.5,88 C15.224,88 15,87.775 15,87.5 L15,71.5 C15,71.225 15.224,71 15.5,71 L32,71 L32,88 L15.5,88 Z M63.5,128 L47.5,128 C47.224,128 47,127.775 47,127.5 L47,31.5 C47,31.225 47.224,31 47.5,31 L63.5,31 C63.776,31 64,31.225 64,31.5 L64,127.5 C64,127.775 63.776,128 63.5,128 Z M96,143.5 C96,143.775 95.776,144 95.5,144 L79.5,144 C79.224,144 79,143.775 79,143.5 L79,127.5 L79,31.5 L79,15.5 C79,15.225 79.224,15 79.5,15 L95.5,15 C95.776,15 96,15.225 96,15.5 L96,143.5 Z M384,143.5 C384,143.775 383.776,144 383.5,144 L367.5,144 C367.224,144 367,143.775 367,143.5 L367,15.5 C367,15.225 367.224,15 367.5,15 L383.5,15 C383.776,15 384,15.225 384,15.5 L384,31.5 L384,127.5 L384,143.5 Z M416,127.5 C416,127.775 415.776,128 415.5,128 L399.5,128 C399.224,128 399,127.775 399,127.5 L399,31.5 C399,31.225 399.224,31 399.5,31 L415.5,31 C415.776,31 416,31.225 416,31.5 L416,127.5 Z M448,87.5 C448,87.775 447.776,88 447.5,88 L431,88 L431,71 L447.5,71 C447.776,71 448,71.225 448,71.5 L448,87.5 Z"></path>
        </g>
    </g>
</svg>