<?xml version="1.0" encoding="UTF-8"?>
<svg width="512px" height="512px" viewBox="0 0 512 512" version="1.1" xmlns="http://www.w3.org/2000/svg" xmlns:xlink="http://www.w3.org/1999/xlink">
    <!-- Generator: Sketch 58 (84663) - https://sketch.com -->
    <title>hoop</title>
    <desc>Created with Sketch.</desc>
    <g id="hoop" stroke="none" stroke-width="1" fill="none" fill-rule="evenodd">
        <g transform="translate(0.000000, 39.000000)" fill="#000000" fill-rule="nonzero" id="Shape">
            <path d="M383.93,10.65 C383.93,5.14 388.42,0.65 393.93,0.65 C399.451,0.65 403.93,5.14 403.93,10.65 C403.93,16.16 399.451,20.65 393.93,20.65 C388.42,20.65 383.93,16.16 383.93,10.65 Z M512,26.65 L512,319.65 C512,326.6 509.29,333.13 504.38,338.03 C499.48,342.94 492.95,345.65 486,345.65 L359.461,345.65 L341.545,399.253 L358.571,416.279 C362.476,420.184 362.476,426.516 358.571,430.421 C356.619,432.373 354.058,433.350125 351.5,433.350125 C348.94,433.350125 346.382,432.374 344.429,430.421 L330.034,416.026 L315.505,430.286 C311.564,434.156 305.231,434.096 301.363,430.154 C297.494,426.212 297.553,419.881 301.495,416.012 L315.891,401.882 L292.957,378.949 L270.157,401.697 L284.562,416.07 C288.471,419.971 288.478,426.302 284.578,430.212 C280.678,434.123 274.346,434.128 270.435,430.228 L256,415.825 L241.563,430.229 C237.653,434.129 231.322,434.123 227.421,430.213 C223.52,426.303 223.527,419.972 227.437,416.071 L241.842,401.698 L219.042,378.95 L196.142,401.85 L210.522,416.029 C214.454,419.907 214.499,426.238 210.621,430.171 C206.743,434.104 200.413,434.148 196.479,430.271 L182,415.993 L167.572,430.421 C163.667,434.326 157.335,434.327 153.429,430.421 C149.523,426.515 149.524,420.184 153.429,416.279 L170.526,399.182 L152.586,345.65 L26,345.65 C19.05,345.65 12.52,342.94 7.62,338.03 C2.71,333.13 -8.52651283e-14,326.6 -8.52651283e-14,319.65 L-8.52651283e-14,26.65 C-8.52651283e-14,19.7 2.71,13.17 7.62,8.27 C12.52,3.36 19.05,0.65 26,0.65 L348.93,0.65 C354.451,0.65 358.93,5.14 358.93,10.65 C358.93,16.16 354.451,20.65 348.93,20.65 L26,20.65 C22.7,20.66 20.01,23.35 20,26.65 L20,319.65 C20.01,322.95 22.7,325.64 26,325.65 L145.883,325.65 L137.505,300.65 L117,300.65 C100.458,300.65 87,287.192 87,270.65 C87,254.108 100.458,240.65 117,240.65 L121,240.65 L121,93.65 C121,88.127 125.477,83.65 131,83.65 L381,83.65 C386.522,83.65 391,88.127 391,93.65 L391,240.65 L395,240.65 C411.542,240.65 425,254.108 425,270.65 C425,287.192 411.542,300.65 395,300.65 L374.501,300.65 L366.145,325.65 L486,325.65 C489.3,325.64 491.99,322.95 492,319.65 L492,26.65 C491.99,23.35 489.3,20.66 486,20.65 L438.95,20.65 C438.939,20.65 438.939,20.65 438.929,20.65 C433.419,20.65 428.929,16.16 428.929,10.65 C428.929,5.14 433.419,0.65 438.929,0.65 L486,0.65 C492.95,0.65 499.479,3.36 504.38,8.27 C509.29,13.17 512,19.7 512,26.65 L512,26.65 Z M141,240.65 L371,240.65 L371,103.65 L141,103.65 L141,240.65 Z M144.934,280.65 L367.066,280.65 C367.218,280.646 367.373,280.646 367.531,280.65 L395,280.65 C400.514,280.65 405,276.164 405,270.65 C405,265.136 400.514,260.65 395,260.65 L117,260.65 C111.486,260.65 107,265.136 107,270.65 C107,276.164 111.486,280.65 117,280.65 L144.469,280.65 C144.624,280.646 144.78,280.646 144.934,280.65 Z M316.996,300.65 L330.025,313.714 L343.119,300.65 L316.996,300.65 Z M242.942,300.65 L256,313.708 L269.058,300.65 L242.942,300.65 Z M168.881,300.65 L181.975,313.714 L195.004,300.65 L168.881,300.65 Z M204.884,364.824 L167.657,327.681 L186.324,383.383 L204.884,364.824 Z M241.858,327.85 L218.96,304.952 L196.133,327.841 L219.026,350.682 L241.858,327.85 Z M278.815,364.808 L256,341.992 L233.184,364.808 L256,387.572 L278.815,364.808 Z M292.974,350.682 L315.868,327.841 L293.041,304.952 L270.144,327.85 L292.974,350.682 Z M344.396,327.627 L307.116,364.823 L325.74,383.447 L344.396,327.627 Z"></path>
        </g>
    </g>
</svg>