<?xml version="1.0" encoding="UTF-8"?>
<svg width="512px" height="512px" viewBox="0 0 512 512" version="1.1" xmlns="http://www.w3.org/2000/svg" xmlns:xlink="http://www.w3.org/1999/xlink">
    <!-- Generator: Sketch 58 (84663) - https://sketch.com -->
    <title>running</title>
    <desc>Created with Sketch.</desc>
    <g id="running" stroke="none" stroke-width="1" fill="none" fill-rule="evenodd">
        <g transform="translate(0.000000, 8.000000)" fill="#000000" fill-rule="nonzero" id="Shape">
            <path d="M503.306,103.184 L502.423,102.301 C490.947,90.825 470.644,90.825 459.168,102.301 L413.265,149.087 C410.617,151.735 407.086,151.735 404.437,149.087 L339.995,89.06 C333.816,83.763 325.871,80.232 317.043,80.232 L220.822,80.232 C218.174,80.232 216.408,81.115 215.525,81.998 L134.311,159.681 C122.835,172.04 121.952,191.46 132.545,202.936 C137.842,209.115 145.786,212.646 154.614,212.646 C163.442,212.646 171.386,209.115 176.683,202.936 L234.062,142.026 L254.365,142.026 L120.188,292.094 L37.209,292.094 C16.906,292.094 1.016,307.101 0.133,325.639 C-0.75,335.349 2.781,345.06 9.843,352.122 C16.905,358.301 25.733,362.715 35.443,362.715 L159.03,362.715 C161.678,362.715 163.444,361.832 165.209,360.067 L228.768,292.095 L281.733,347.709 L265.843,450.109 C261.429,467.764 270.257,484.537 285.264,491.599 C290.561,494.247 294.974,495.13 300.271,495.13 C305.568,495.13 310.864,494.247 316.161,491.599 C324.989,487.185 332.051,478.358 334.699,467.764 L362.064,320.343 C362.064,317.695 361.181,314.164 359.416,312.398 L286.147,239.129 L344.409,180.867 L385.016,221.474 C396.492,232.95 415.913,232.95 427.388,221.474 L503.305,145.557 C514.782,134.08 514.782,114.66 503.306,103.184 Z M490.947,133.198 L415.03,209.115 C409.733,213.529 401.789,213.529 397.375,209.115 L350.589,162.329 C347.058,158.798 341.761,158.798 338.23,162.329 L267.609,232.95 C265.843,234.716 264.961,236.481 264.961,239.129 C264.961,241.777 265.844,243.543 268.492,246.191 L344.409,322.108 L317.926,464.232 C316.16,468.646 312.629,473.06 308.216,475.708 C303.802,477.474 298.506,478.356 293.209,475.708 C285.264,472.177 281.733,463.349 283.499,453.639 L300.271,345.942 C300.271,343.294 299.388,340.645 297.623,338.88 L234.947,273.556 C233.181,271.79 231.416,270.908 228.768,270.908 C226.12,270.908 223.471,271.791 222.589,273.556 L155.499,345.059 L35.444,345.059 C30.147,345.059 25.734,343.293 22.203,339.762 C19.555,336.231 17.789,331.817 17.789,326.521 C17.789,316.811 26.617,309.749 37.21,309.749 L123.72,309.749 C126.368,309.749 128.134,308.866 129.899,308.866 L279.968,141.142 C282.616,138.494 282.616,134.963 281.734,131.432 C280.851,127.901 277.32,126.135 273.789,126.135 L229.651,126.135 C227.885,126.135 225.237,127.018 223.472,128.783 L163.444,192.342 C161.678,194.99 158.147,196.756 154.616,196.756 C151.085,196.756 147.554,194.99 144.906,192.342 C140.492,187.045 140.492,179.101 145.789,173.804 L224.355,98.77 L317.927,98.77 C321.458,98.77 325.872,100.536 328.52,103.184 L392.961,163.212 C402.671,172.04 417.678,171.157 426.506,162.329 L472.41,115.543 C476.824,111.129 485.651,111.129 490.065,115.543 L490.948,116.426 C495.361,120.839 495.361,128.784 490.947,133.198 Z"></path>
            <path d="M406.202,106.715 C435.333,106.715 459.168,82.881 459.168,53.749 C459.168,24.617 435.333,0.784 406.202,0.784 C377.071,0.784 353.236,24.618 353.236,53.75 C353.236,82.882 377.071,106.715 406.202,106.715 Z M406.202,18.439 C425.623,18.439 441.512,34.329 441.512,53.749 C441.512,73.17 425.622,89.059 406.202,89.059 C386.782,89.059 370.892,73.169 370.892,53.749 C370.892,34.329 386.782,18.439 406.202,18.439 Z"></path>
        </g>
    </g>
</svg>